<svg xmlns="http://www.w3.org/2000/svg" viewBox="0 0 1000 296.4" style="enable-background:new 0 0 1000 296.4" xml:space="preserve"><path d="M56.6-156.6H18c-8.3 0-15-6.7-15-15v-38.6c0-8.3 6.7-15 15-15h38.5c8.3 0 15 6.7 15 15v38.6c0 8.3-6.7 15-14.9 15" style="fill-rule:evenodd;clip-rule:evenodd;fill:#ff7705" transform="matrix(4.31842 0 0 4.31842 -13.153 972.606)"/><path d="M26-167.5c-.8 0-2.7-.4-4.6-.9-1.9-.5-3.2-1.2-3.2-1.2-.7-.4-1-1-1.1-1.6 0 0-.2-2-.2-5.8 0-2.9.1-4.5.2-4.9.1-.5.3-.9 1-.9s1.5 0 3.6.4c2.5.5 3.7.9 4.3 1.1.5.2 1.1.6 1.2 1.4 0 0 .3 2.1.3 5.3 0 2.6-.2 5.2-.3 6-.1.7-.4 1.1-1.2 1.1zm11.3-9c0-.5-.2-.9-.5-1.2l-6.5-6.4c-.7-.8-1.6-1.3-2.7-1.5 0 0-2.4-.6-6.1-1.2-3.6-.6-4.6-.5-4.6-.5-3.2 0-3.3 3.4-3.4 3.8-.1.8-.3 3-.3 6.1 0 3.6.2 6.1.3 7.7.3 2.3 2.1 3.4 2.9 3.9.2.1 2.5 1.1 4.7 1.8 1.5.5 4 1.2 5.1 1.3.4.1 2.6.4 3.7-1l6.9-8.9c.3-.4.4-.6.4-1.2l.1-2.7zm15.1-13c-1-.1-2-.1-2.9-.1L34-188.1s-1 .2-1.6.9c-.5.6-.5 1.1-.5 1.1l.4.4 6.1 6.2c.7.7 1.1 1.3 1.1 2.3v3.5c0 .6-.1 1.2-.4 1.6l-3.3 4.5 3.3 1.3c1.3.4 2.4.4 3.7.2l14.2-3.3s2.6-.7 2.6-3.1v-8.7c0-.2-.1-.3-.3-.3l-9.1 1.8c-.3.1-.6.4-.6.7v4.2c0 .3.3.5.6.4l2.8-.6c.1 0 .3.1.3.3v1.4c0 .3-.2.5-.5.5l-3.2.7s-2.2.6-2.2-1.8v-5.4c0-2.3 1.7-2.6 1.7-2.6l10-1.9c.3 0 .5-.3.5-.5v-2.2c0-2.4-2.3-2.6-2.3-2.6l-4.9-.4zm-18.6-22.7c3.7.2 6.5 3.7 6.3 8-.2 4.3-3.4 7.7-7 7.6-3.7-.2-6.4-3.7-6.2-8 .2-4.4 3.3-7.8 6.9-7.6zm15 10c.2-2.9 2.2-5.2 4.7-5.1 2.3.1 4.2 2.6 4.1 5.4-.2 2.9-2.3 5.2-4.7 5.1-2.4-.1-4.2-2.5-4.1-5.4zm12.5.4c0-5.8-4.3-10.4-9.6-10.4-3.1 0-5.9 1.6-7.7 4.1-1.4-6.2-6.5-10.7-12.7-10.7-7.4 0-13.3 6.4-13.2 14.2 0 7.9 6 14.4 13.2 14.3.4 0 20.5-1.4 20.4-1.4 5.7-.5 9.6-4.4 9.6-10.1z" style="fill-rule:evenodd;clip-rule:evenodd;fill:#fff" transform="matrix(4.31842 0 0 4.31842 -13.153 972.606)"/><g><g transform="matrix(4.31842 0 0 4.31842 240.58 995.885)"><linearGradient id="a" gradientUnits="userSpaceOnUse" x1="83.454" y1="-10.383" x2="82.473" y2="23.125" gradientTransform="matrix(3.7702 0 0 -4.9463 -171.004 -220.774)"><stop offset="0" style="stop-color:#ff6000"/><stop offset="1" style="stop-color:#ff8d0a"/></linearGradient><path d="M132.1-206.6h.1c2.7-.5 6.6-1.1 11.1-1.1 9.4 0 14.5 4.2 14.5 12.7v23.9c0 .7-.6 1.4-1.3 1.4h-5.6c-.2 0-.7-.1-1-.4-.3-.2-.4-.7-.4-.9v-.5c-.8.9-2.5 2.2-7.3 2.3-5.1.1-7.6-1.3-8.8-2.2-1.5-1.1-2.7-2.5-3.6-4.1-.5-1-.9-2.1-1.1-4.1-.2-2.2.2-4.3.8-5.7 1.7-4.1 6-6.4 13.6-6.9 2.3-.1 6.1-.2 6.1-.2v-2.5c0-4.3-1.8-4.9-5.7-4.9-5.6 0-10.6 1-11.5 1.2-.4 0-.6-.1-.7-.2-.2-.2-.3-.5-.3-.6v-5.6c0-.6.5-1.1 1.1-1.3-.1-.3-.1-.3 0-.3zm5 25.6c.2-2.4 2.4-3.2 2.9-3.3 1.1-.4 2.6-.7 4.5-.8 2.3-.2 4.5-.1 4.5-.1v7.6c-1.9.9-3.4 1.3-5.7 1.4h-.7c-2.1 0-5.1-.6-5.6-4.3.1-.3.1-.4.1-.5z" style="fill-rule:evenodd;clip-rule:evenodd;fill:url(#a)"/><linearGradient id="b" gradientUnits="userSpaceOnUse" x1="97.457" y1="-29.737" x2="96.919" y2="-11.338" gradientTransform="matrix(2.1647 0 0 -8.6151 -39.606 -426.12)"><stop offset="0" style="stop-color:#ff6000"/><stop offset="1" style="stop-color:#ff8d0a"/></linearGradient><path d="M168-206.6c-.8 0-1.3.7-1.4 1.4v34c0 .2.1.5.4.9s.8.4 1 .4h6.4c.9 0 1.3-.6 1.3-1.4v-33.8c0-.8-.6-1.4-1.4-1.4H168z" style="fill-rule:evenodd;clip-rule:evenodd;fill:url(#b)"/><linearGradient id="c" gradientUnits="userSpaceOnUse" x1="58.556" y1="-9.836" x2="57.187" y2="36.913" gradientTransform="matrix(3.8065 0 0 -4.8991 -173.976 -218.133)"><stop offset=".021" style="stop-color:#ff6000"/><stop offset="1" style="stop-color:#ff8d0a"/></linearGradient><path d="M56.3-222.9c-.5 0-.9.2-1.2.5l-16 20.3c-.4.5-1.4.1-1.4-.7v-18.6c0-.5-.2-.8-.4-1.1-.2-.2-.5-.5-1-.5h-6.4c-.9 0-1.5.7-1.5 1.5v50.1c0 .5.2.8.4 1 .3.3.7.4 1 .4h6.4c1 0 1.5-.6 1.5-1.4V-193c0-1.7 1.3-1.4 1.8-.8l19.3 23c.4.5 1 .8 1.7.8h8.6c.2 0 .3-.1.4-.3.1-.2.1-.5-.1-.6l-22-25.8c-.3-.3-.4-.7-.2-1l18.3-24.5c.1-.1.2-.3 0-.6-.2-.2-.3-.2-.4-.2l-8.8.1z" style="fill-rule:evenodd;clip-rule:evenodd;fill:url(#c)"/><linearGradient id="d" gradientUnits="userSpaceOnUse" x1="90.111" y1="-6.785" x2="90.111" y2="43.918" gradientTransform="matrix(4.0727 0 0 -4.579 -195.758 -200.213)"><stop offset="0" style="stop-color:#ff6000"/><stop offset="1" style="stop-color:#ff8d0a"/></linearGradient><path d="M168-222.9c-.9 0-1.4.6-1.4 1.3V-214c0 .8.6 1.4 1.4 1.4h6.3c.9 0 1.5-.6 1.5-1.4v-7.5c0-.8-.6-1.4-1.4-1.4H168z" style="fill-rule:evenodd;clip-rule:evenodd;fill:url(#d)"/><linearGradient id="e" gradientUnits="userSpaceOnUse" x1="74.036" y1="8.74" x2="72.707" y2="54.15" gradientTransform="matrix(5.3395 0 0 -3.4926 -299.434 -139.407)"><stop offset="0" style="stop-color:#ff6000"/><stop offset="1" style="stop-color:#ff8d0a"/></linearGradient><path d="M107.5-183.5c-.2.7-1.2.7-1.5 0l-8.1-22.2c-.2-.4-.7-.8-1.3-.8h-4.2c-.7 0-1.2.4-1.4.9l-8.1 22.1c-.2.7-1.4.7-1.5 0l-6.1-21.3c0-.1-.1-.9-.6-1.3-.5-.3-.6-.3-1.2-.4h-5.6c-.9 0-1.7.7-1.5 1.7 0 .1 9.2 33.1 9.4 33.8.1.4.2.7.5.9s.6.4 1 .4h8.9c.7 0 1.2-.3 1.4-.8l1.4-3.2 5.1-13.6c.3-.6 1.2-.7 1.4 0l6.1 16.6c.1.3.2.5.5.7.2.2.6.3.9.3h9.4c.8 0 1.4-.4 1.5-1l.4-1.6s.2-.9.7-2.6l7.6-29.5c.2-.9-.2-1.8-1.1-2H115c-.7 0-1.2.4-1.4 1-.2.4-5.9 21.2-6.1 21.9z" style="fill-rule:evenodd;clip-rule:evenodd;fill:url(#e)"/></g></g></svg>