<?xml version="1.0" encoding="UTF-8" standalone="no"?>
<!DOCTYPE svg PUBLIC "-//W3C//DTD SVG 1.1//EN" "http://www.w3.org/Graphics/SVG/1.1/DTD/svg11.dtd">
<svg width="100%" height="100%" viewBox="0 0 300 296" version="1.1" xmlns="http://www.w3.org/2000/svg" xmlns:xlink="http://www.w3.org/1999/xlink" xml:space="preserve" xmlns:serif="http://www.serif.com/" style="fill-rule:evenodd;clip-rule:evenodd;stroke-linejoin:round;stroke-miterlimit:2;">
    <g transform="matrix(4.31842,0,0,4.31842,-13.153,972.606)">
        <path d="M56.6,-156.6L18,-156.6C9.7,-156.6 3,-163.3 3,-171.6L3,-210.2C3,-218.5 9.7,-225.2 18,-225.2L56.5,-225.2C64.8,-225.2 71.5,-218.5 71.5,-210.2L71.5,-171.6C71.5,-163.3 64.8,-156.6 56.6,-156.6" style="fill:rgb(255,119,5);"/>
    </g>
    <g transform="matrix(4.31842,0,0,4.31842,-13.153,972.606)">
        <path d="M26,-167.5C25.2,-167.5 23.3,-167.9 21.4,-168.4C19.5,-168.9 18.2,-169.6 18.2,-169.6C17.5,-170 17.2,-170.6 17.1,-171.2C17.1,-171.2 16.9,-173.2 16.9,-177C16.9,-179.9 17,-181.5 17.1,-181.9C17.2,-182.4 17.4,-182.8 18.1,-182.8C18.8,-182.8 19.6,-182.8 21.7,-182.4C24.2,-181.9 25.4,-181.5 26,-181.3C26.5,-181.1 27.1,-180.7 27.2,-179.9C27.2,-179.9 27.5,-177.8 27.5,-174.6C27.5,-172 27.3,-169.4 27.2,-168.6C27.1,-167.9 26.8,-167.5 26,-167.5ZM37.3,-176.5C37.3,-177 37.1,-177.4 36.8,-177.7L30.3,-184.1C29.6,-184.9 28.7,-185.4 27.6,-185.6C27.6,-185.6 25.2,-186.2 21.5,-186.8C17.9,-187.4 16.9,-187.3 16.9,-187.3C13.7,-187.3 13.6,-183.9 13.5,-183.5C13.4,-182.7 13.2,-180.5 13.2,-177.4C13.2,-173.8 13.4,-171.3 13.5,-169.7C13.8,-167.4 15.6,-166.3 16.4,-165.8C16.6,-165.7 18.9,-164.7 21.1,-164C22.6,-163.5 25.1,-162.8 26.2,-162.7C26.6,-162.6 28.8,-162.3 29.9,-163.7L36.8,-172.6C37.1,-173 37.2,-173.2 37.2,-173.8L37.3,-176.5ZM52.4,-189.5C51.4,-189.6 50.4,-189.6 49.5,-189.6L34,-188.1C34,-188.1 33,-187.9 32.4,-187.2C31.9,-186.6 31.9,-186.1 31.9,-186.1L32.3,-185.7L38.4,-179.5C39.1,-178.8 39.5,-178.2 39.5,-177.2L39.5,-173.7C39.5,-173.1 39.4,-172.5 39.1,-172.1L35.8,-167.6L39.1,-166.3C40.4,-165.9 41.5,-165.9 42.8,-166.1L57,-169.4C57,-169.4 59.6,-170.1 59.6,-172.5L59.6,-181.2C59.6,-181.4 59.5,-181.5 59.3,-181.5L50.2,-179.7C49.9,-179.6 49.6,-179.3 49.6,-179L49.6,-174.8C49.6,-174.5 49.9,-174.3 50.2,-174.4L53,-175C53.1,-175 53.3,-174.9 53.3,-174.7L53.3,-173.3C53.3,-173 53.1,-172.8 52.8,-172.8L49.6,-172.1C49.6,-172.1 47.4,-171.5 47.4,-173.9L47.4,-179.3C47.4,-181.6 49.1,-181.9 49.1,-181.9L59.1,-183.8C59.4,-183.8 59.6,-184.1 59.6,-184.3L59.6,-186.5C59.6,-188.9 57.3,-189.1 57.3,-189.1L52.4,-189.5ZM33.8,-212.2C37.5,-212 40.3,-208.5 40.1,-204.2C39.9,-199.9 36.7,-196.5 33.1,-196.6C29.4,-196.8 26.7,-200.3 26.9,-204.6C27.1,-209 30.2,-212.4 33.8,-212.2ZM48.8,-202.2C49,-205.1 51,-207.4 53.5,-207.3C55.8,-207.2 57.7,-204.7 57.6,-201.9C57.4,-199 55.3,-196.7 52.9,-196.8C50.5,-196.9 48.7,-199.3 48.8,-202.2ZM61.3,-201.8C61.3,-207.6 57,-212.2 51.7,-212.2C48.6,-212.2 45.8,-210.6 44,-208.1C42.6,-214.3 37.5,-218.8 31.3,-218.8C23.9,-218.8 18,-212.4 18.1,-204.6C18.1,-196.7 24.1,-190.2 31.3,-190.3C31.7,-190.3 51.8,-191.7 51.7,-191.7C57.4,-192.2 61.3,-196.1 61.3,-201.8Z" style="fill:white;"/>
    </g>
</svg>
